# xmcd
#
# Track frame offsets:
#	183
#	16510
#	33818
#	54018
#	69125
#	87640
#	104223
#	120765
#	137970
#	159255
#
# Disc length: 2558 seconds
#
# Revision: 2
# Processed by: cddbd v1.5.2PL0 Copyright (c) Steve Scherf et al.
# Submitted via: audiograbber 1.83.01
#
DISCID=6e09fc0a
DTITLE=Trouble Boys And The Sireens - Hang On Sloopy
DYEAR=1988
DGENRE=Blues
TTITLE0=Shakedown 
TTITLE1=Paper In Fire 
TTITLE2=Fire 
TTITLE3=Wild Side 
TTITLE4=People Get Ready 
TTITLE5=Hang On Sloppy 
TTITLE6=Get It On 
TTITLE7=Giving It All Up For Love (Original "Tattoo") 
TTITLE8=Hymn To Her 
TTITLE9=It's All Over Now, Baby Blue 
EXTD=
EXTT0=
EXTT1=
EXTT2=
EXTT3=
EXTT4=
EXTT5=
EXTT6=
EXTT7=
EXTT8=
EXTT9=
PLAYORDER=
